<?xml version="1.0" standalone="no"?>
<!DOCTYPE svg PUBLIC "-//W3C//DTD SVG 20010904//EN"
 "http://www.w3.org/TR/2001/REC-SVG-20010904/DTD/svg10.dtd">
<svg version="1.0" xmlns="http://www.w3.org/2000/svg"
 width="419.000000pt" height="141.000000pt" viewBox="0 0 419.000000 141.000000"
 preserveAspectRatio="xMidYMid meet">

<g transform="translate(0.000000,141.000000) scale(0.100000,-0.100000)"
fill="#000000" stroke="none">
<path d="M260 670 l0 -480 1740 0 1740 0 0 480 0 480 -1740 0 -1740 0 0 -480z
m3450 0 l0 -450 -1715 0 -1715 0 0 450 0 450 1715 0 1715 0 0 -450z"/>
<path d="M350 670 l0 -390 825 0 825 0 0 390 0 390 -825 0 -825 0 0 -390z
m447 113 c24 -16 43 -43 43 -62 0 -19 -18 -12 -48 19 -57 57 -153 31 -168 -46
-19 -103 94 -167 168 -94 16 17 36 30 44 30 12 0 12 -4 -1 -30 -41 -80 -188
-81 -230 0 -23 44 -19 111 8 151 38 57 123 72 184 32z m319 7 c90 -44 100
-165 18 -229 -20 -15 -41 -21 -80 -21 -47 0 -59 4 -90 33 -70 64 -54 180 30
218 52 24 70 24 122 -1z m323 -4 c39 -21 63 -61 63 -110 2 -90 -53 -136 -161
-136 l-61 0 0 130 0 130 65 0 c38 0 78 -6 94 -14z m311 -1 c0 -12 -13 -15 -60
-15 l-60 0 0 -40 0 -40 55 0 c42 0 55 -3 55 -15 0 -12 -13 -15 -55 -15 l-55 0
0 -45 0 -45 65 0 c51 0 65 -3 65 -15 0 -12 -16 -15 -85 -15 l-85 0 0 130 0
130 80 0 c64 0 80 -3 80 -15z"/>
<path d="M993 755 c-54 -38 -50 -141 7 -170 59 -30 119 -12 146 43 13 29 14
41 5 73 -6 21 -21 45 -34 54 -28 19 -96 19 -124 0z"/>
<path d="M1310 669 l0 -101 57 4 c46 4 61 10 80 32 34 40 32 99 -6 137 -25 24
-37 29 -80 29 l-51 0 0 -101z"/>
<path d="M2161 803 c-70 -37 -98 -117 -64 -182 27 -53 62 -73 123 -73 59 0 94
20 123 71 l19 31 -38 0 c-20 0 -46 -7 -55 -16 -40 -36 -109 -7 -109 47 0 55
56 83 101 50 16 -12 43 -21 65 -21 l36 0 -19 31 c-40 69 -118 96 -182 62z"/>
<path d="M2746 810 c-84 -27 -119 -130 -70 -207 32 -51 130 -71 193 -39 115
60 76 238 -55 251 -21 3 -52 0 -68 -5z m77 -71 c29 -16 37 -28 37 -60 0 -32
-31 -61 -65 -61 -62 0 -87 73 -39 111 31 24 37 25 67 10z"/>
<path d="M3470 807 c-73 -26 -104 -131 -60 -202 49 -79 193 -76 235 5 8 16 15
31 15 35 0 12 -75 4 -91 -11 -22 -20 -63 -21 -84 -4 -24 20 -19 86 7 104 30
21 54 20 78 -4 12 -12 33 -20 55 -20 40 0 40 1 21 39 -29 56 -109 82 -176 58z"/>
<path d="M2400 680 l0 -130 35 0 c33 0 35 2 35 35 0 27 4 35 18 35 11 0 25
-14 35 -35 15 -31 21 -35 57 -35 22 0 40 3 40 6 0 4 -9 21 -20 40 l-21 32 21
34 c28 47 26 84 -9 119 -28 27 -34 29 -110 29 l-81 0 0 -130z m138 39 c2 -21
-2 -28 -23 -33 -35 -9 -45 -1 -45 35 0 28 2 30 33 27 26 -2 33 -8 35 -29z"/>
<path d="M2980 680 l0 -130 35 0 34 0 3 66 3 66 48 -66 c41 -55 53 -66 78 -66
l29 0 0 130 0 130 -35 0 -34 0 -3 -62 -3 -63 -48 63 c-40 51 -53 62 -78 62
l-29 0 0 -130z"/>
<path d="M3270 680 l0 -130 40 0 40 0 0 130 0 130 -40 0 -40 0 0 -130z"/>
</g>
</svg>
