<?xml version="1.0" standalone="no"?>
<!DOCTYPE svg PUBLIC "-//W3C//DTD SVG 20010904//EN"
 "http://www.w3.org/TR/2001/REC-SVG-20010904/DTD/svg10.dtd">
<svg version="1.0" xmlns="http://www.w3.org/2000/svg"
 width="695.000000pt" height="666.000000pt" viewBox="0 0 695.000000 666.000000"
 preserveAspectRatio="xMidYMid meet">

<g transform="translate(0.000000,666.000000) scale(0.100000,-0.100000)"
fill="#000000" stroke="none">
<path d="M4760 6471 c-63 -37 -523 -300 -1022 -585 l-908 -518 0 -36 c0 -21 5
-86 10 -147 14 -165 67 -853 90 -1165 28 -393 23 -368 76 -391 l43 -20 124 70
c153 87 157 88 157 64 0 -13 55 -51 203 -141 112 -67 208 -122 214 -122 16 0
784 439 808 461 14 14 17 23 10 34 -6 9 -98 69 -205 134 -107 65 -195 123
-197 127 -2 5 200 124 448 264 247 140 459 262 471 271 l20 15 -16 220 c-20
271 -50 662 -76 979 -10 132 -22 281 -25 330 -11 180 -11 179 -61 203 -24 12
-46 22 -47 21 -1 0 -54 -31 -117 -68z m120 -370 c0 -8 -284 -173 -835 -487
-99 -56 -360 -205 -580 -332 -220 -126 -402 -228 -404 -225 -10 9 33 37 199
131 275 156 1478 845 1545 885 63 38 75 43 75 28z m-9 -158 c0 -5 8 -111 18
-238 15 -199 15 -262 -3 -244 -4 4 -36 411 -36 462 0 15 5 27 10 27 6 0 10 -3
11 -7z m-107 -50 c-34 -26 -135 -83 -145 -83 -6 0 -9 6 -7 13 6 16 150 97 162
90 5 -4 0 -12 -10 -20z m-816 -215 c-5 -14 -558 -332 -572 -329 -19 4 11 25
147 102 84 47 211 120 282 162 136 78 149 85 143 65z m425 -180 c4 -35 10
-112 13 -171 4 -59 11 -110 15 -113 8 -4 165 79 221 118 31 21 38 22 38 5 0
-16 -270 -171 -280 -160 -7 7 -30 279 -30 351 0 56 17 35 23 -30z m-423 -358
c6 -91 15 -168 18 -172 4 -4 63 25 130 63 68 39 127 68 130 65 10 -10 -12 -26
-144 -102 -71 -40 -132 -70 -136 -66 -9 9 -38 373 -31 385 13 22 21 -21 33
-173z m1009 -82 c7 -84 13 -164 14 -178 2 -25 -26 -43 -458 -286 -66 -37 -156
-88 -200 -114 -75 -45 -183 -106 -505 -290 -313 -179 -490 -280 -565 -323 -56
-33 -81 -43 -86 -34 -3 7 -9 50 -12 97 -4 47 -11 144 -17 215 -5 72 -11 150
-13 175 l-4 45 104 0 c102 -1 103 -1 135 -32 38 -37 95 -63 135 -63 87 0 232
119 293 241 17 32 35 59 40 59 6 0 37 -13 70 -30 79 -40 123 -40 182 3 52 36
121 114 181 202 58 85 146 191 214 257 56 54 168 138 185 138 4 0 19 -18 33
-41 41 -63 56 -53 85 58 12 47 18 49 116 52 l60 1 13 -152z m-229 108 c0 -3
-4 -8 -10 -11 -5 -3 -10 -1 -10 4 0 6 5 11 10 11 6 0 10 -2 10 -4z m-1402 -88
c-6 -17 -157 -102 -166 -94 -9 9 28 37 98 75 61 34 74 37 68 19z m359 -1 c4
-4 -100 -253 -110 -263 -2 -2 -7 52 -11 122 -4 69 -4 130 1 134 18 17 104 22
120 7z m-397 -106 c0 -10 -103 -71 -120 -71 -24 0 -6 21 43 48 55 31 77 38 77
23z m470 -385 c0 -13 -34 -81 -60 -119 -93 -138 -228 -183 -312 -105 l-31 29
63 30 c35 16 98 54 141 84 42 30 92 61 111 69 30 13 88 21 88 12z"/>
<path d="M4605 4919 c-171 -97 -191 -111 -181 -128 11 -18 32 -13 88 20 29 18
69 41 88 52 162 91 191 110 188 125 -2 8 -8 17 -13 19 -6 2 -82 -38 -170 -88z"/>
<path d="M4725 4901 c-96 -55 -331 -188 -387 -222 -37 -21 -58 -40 -58 -51 0
-27 24 -22 98 21 37 21 144 82 237 135 94 54 174 101 180 107 6 6 4 14 -5 23
-13 13 -21 11 -65 -13z"/>
<path d="M3255 4188 c-37 -29 -51 -87 -31 -126 31 -59 93 -34 117 47 10 34 9
44 -4 64 -22 34 -52 39 -82 15z m39 -75 c-5 -14 -15 -28 -21 -31 -16 -5 -17
32 -2 60 16 30 36 7 23 -29z"/>
<path d="M2229 5022 c-267 -152 -727 -414 -1022 -582 -294 -168 -538 -309
-540 -315 -4 -10 35 -538 87 -1180 14 -170 28 -358 32 -417 7 -113 8 -114 64
-140 l36 -16 129 74 c72 41 136 74 143 74 6 0 12 -8 12 -17 1 -12 59 -54 181
-128 99 -60 193 -116 209 -124 27 -13 38 -8 434 219 343 196 406 236 406 255
0 18 -37 44 -204 145 -113 68 -203 127 -200 131 2 4 145 88 317 185 334 190
620 354 625 359 2 1 -6 115 -18 251 -34 421 -110 1409 -110 1443 0 10 -19 26
-45 39 -25 12 -47 22 -48 22 -1 0 -221 -125 -488 -278z m489 -164 c-5 -14 -46
-38 -478 -283 -173 -98 -352 -200 -398 -227 -91 -53 -92 -53 -92 -35 0 7 89
63 198 124 249 140 450 255 622 354 138 81 155 88 148 67z m-434 -138 c-18
-18 -386 -221 -392 -215 -8 7 -15 3 197 124 170 97 228 124 195 91z m390 1 c7
-10 -67 -61 -89 -61 -27 0 -16 25 23 46 42 24 58 28 66 15z m6 -61 c0 -13 -89
-62 -100 -55 -19 12 -9 25 38 49 45 23 62 25 62 6z m0 -54 c0 -20 -87 -63
-101 -49 -8 8 1 18 33 37 48 29 68 33 68 12z m-326 -108 c15 -92 4 -106 -137
-184 -113 -62 -121 -65 -134 -48 -7 10 -13 44 -13 79 0 50 4 66 21 81 33 29
222 134 239 131 10 -1 18 -21 24 -59z m396 -68 l0 -59 -242 -198 c-133 -109
-294 -241 -357 -293 -234 -193 -333 -271 -338 -266 -6 6 -32 245 -33 298 0 42
-42 14 380 253 299 169 446 253 510 291 77 45 80 44 80 -26z m-1095 -319 c-5
-9 -62 -41 -72 -41 -13 0 2 22 25 34 31 17 56 21 47 7z m1 -190 c-9 -14 -118
-72 -125 -66 -8 8 9 22 69 54 53 29 68 33 56 12z m984 -5 c-23 -20 -457 -266
-472 -266 -26 0 19 30 207 135 105 59 204 116 220 126 38 22 67 26 45 5z m100
-116 c0 -13 -28 -25 -38 -16 -3 4 0 11 8 16 20 13 30 12 30 0z m-204 -29 c-8
-13 -171 -101 -187 -101 -21 0 0 16 95 69 85 48 106 55 92 32z m-986 -99 c0
-7 -63 -42 -75 -42 -16 0 0 19 28 33 37 18 47 20 47 9z"/>
<path d="M5405 4848 c-4 -9 -2 -26 5 -37 10 -20 8 -21 -38 -21 -68 0 -174 -54
-245 -125 -62 -62 -87 -107 -87 -157 0 -50 37 -183 72 -260 17 -37 28 -75 25
-85 -3 -10 -13 -36 -21 -58 -8 -22 -15 -56 -16 -75 0 -29 -6 -39 -31 -54 -28
-16 -30 -22 -25 -55 3 -20 10 -70 15 -112 13 -102 29 -136 96 -202 67 -65 132
-96 173 -81 30 11 31 27 6 82 -9 18 -18 48 -21 66 -5 32 -4 33 35 39 31 6 49
2 83 -17 24 -14 86 -37 138 -52 83 -23 106 -26 190 -21 55 3 125 15 164 27
l68 21 50 102 c73 153 92 232 93 407 1 133 -1 149 -22 192 -13 27 -35 57 -49
68 -27 21 -18 32 22 27 12 -1 20 4 20 13 0 11 -13 16 -47 18 l-46 3 5 58 c7
73 -15 123 -70 159 -38 25 -48 27 -164 28 -67 0 -126 4 -130 8 -4 4 -1 16 6
28 8 13 9 24 3 30 -13 13 -31 2 -42 -28 -8 -20 -16 -24 -52 -24 -49 0 -89 23
-130 72 -22 28 -28 30 -33 16z m-150 -742 c29 -29 45 -84 45 -158 0 -96 -34
-143 -86 -119 -68 31 -92 235 -33 284 28 23 45 22 74 -7z"/>
<path d="M5183 4084 c-38 -59 -14 -207 40 -238 15 -9 22 -6 39 14 28 35 23
175 -8 217 -28 38 -49 40 -71 7z"/>
<path d="M6037 3631 c-26 -6 -48 -19 -67 -43 -19 -23 -49 -43 -87 -57 -62 -23
-278 -71 -408 -91 -161 -25 -360 -141 -505 -297 l-70 -75 -63 21 c-79 27 -107
46 -107 75 0 49 36 58 104 24 37 -18 47 -19 60 -8 21 17 20 35 -5 79 -30 54
-103 100 -170 108 -72 8 -89 18 -89 52 0 33 14 41 71 41 45 0 48 8 15 32 -19
14 -30 15 -61 7 -92 -26 -111 -97 -46 -173 30 -34 41 -58 46 -93 14 -111 34
-133 159 -179 34 -12 60 -26 59 -31 -1 -4 -33 -64 -70 -133 -92 -167 -248
-458 -321 -600 l-60 -115 -123 -72 c-68 -39 -125 -75 -126 -80 -3 -7 161 -63
185 -63 4 0 23 31 42 69 19 39 38 70 42 70 3 1 16 -15 28 -34 58 -94 208 -185
340 -207 41 -6 76 -12 78 -13 2 -2 -62 -146 -130 -295 -30 -65 -74 -107 -131
-126 -93 -31 -142 -15 -432 139 -141 75 -375 198 -407 215 -30 15 17 40 -883
-478 -275 -159 -564 -325 -811 -467 -226 -129 -244 -133 -354 -76 -41 21 -249
139 -462 261 l-386 223 -59 -15 c-70 -18 -457 -102 -676 -147 l-157 -32 0
-524 0 -523 3475 0 3475 0 0 1680 0 1680 -22 -9 c-13 -5 -95 -39 -182 -76 -88
-36 -165 -64 -170 -62 -6 3 -17 35 -24 73 -30 158 -149 279 -322 327 -72 21
-146 27 -193 18z"/>
<path d="M3679 2992 c-114 -86 -325 -247 -470 -356 -603 -456 -589 -445 -589
-475 0 -16 6 -33 13 -39 28 -22 540 -241 551 -235 49 29 156 118 153 127 -7
21 -53 36 -113 36 -73 0 -97 15 -92 55 l3 30 93 0 c50 0 92 3 92 6 0 3 -8 14
-19 23 -16 14 -31 16 -95 10 -83 -7 -106 1 -106 41 0 34 17 42 111 50 71 5 93
4 119 -10 38 -20 45 -16 24 13 -14 20 -24 22 -100 22 -81 0 -85 1 -96 26 -11
23 -10 29 11 45 13 11 32 19 44 19 11 0 28 6 36 13 16 14 106 37 143 37 12 0
39 -20 64 -47 24 -26 46 -45 48 -42 3 2 0 24 -6 48 -10 38 -9 45 10 64 18 18
25 19 47 9 14 -6 25 -18 25 -27 0 -26 65 -185 75 -185 6 0 83 55 172 123 89
67 263 199 387 292 221 166 225 171 226 206 l0 36 -273 122 c-151 66 -276 121
-278 120 -2 0 -97 -71 -210 -157z"/>
<path d="M1970 1882 c-25 -16 -78 -50 -117 -76 -63 -40 -73 -50 -73 -75 0 -32
-23 -15 377 -268 73 -45 143 -83 156 -83 26 0 236 130 249 155 5 8 6 24 3 35
-7 23 -488 332 -525 338 -16 2 -42 -8 -70 -26z"/>
</g>
</svg>
